Coordinates
version=1
nRows=24
nColumns=38
inDegrees=no

Units are S.I. units (second, meters, Newtons, ...)
If the header above contains a line with 'inDegrees', this indicates whether rotational values are in degrees (yes) or radians (no).

endheader
time	pelvis_tilt	pelvis_list	pelvis_rotation	pelvis_tx	pelvis_ty	pelvis_tz	hip_flexion_r	hip_adduction_r	hip_rotation_r	knee_angle_r	ankle_angle_r	subtalar_angle_r	mtp_angle_r	hip_flexion_l	hip_adduction_l	hip_rotation_l	knee_angle_l	ankle_angle_l	subtalar_angle_l	mtp_angle_l	lumbar_extension	lumbar_bending	lumbar_rotation	arm_flex_r	arm_add_r	arm_rot_r	elbow_flex_r	pro_sup_r	wrist_flex_r	wrist_dev_r	arm_flex_l	arm_add_l	arm_rot_l	elbow_flex_l	pro_sup_l	wrist_flex_l	wrist_dev_l
10	-2.08656	1.41003	0.601462	0.80665	0.797514	0.923916	0.353889	0.0142537	-0.207959	0.74642	-0.220344	0	0	-0.143668	-0.172712	0.0244188	0.202669	-0.172229	0	0	-0.483068	0.355406	0.459962	-0.542584	-0.142743	-0.746601	1.69388	1.5708	0	0	0.416255	0.0930853	0.359826	0.450643	1.5708	0	0
10.01	-2.07324	1.40717	0.584354	0.806321	0.79609	0.924175	0.36207	0.0178509	-0.208924	0.736252	-0.218762	0	0	-0.146123	-0.175449	0.0232798	0.203928	-0.173583	0	0	-0.484973	0.357564	0.464748	-0.544505	-0.141893	-0.746698	1.69246	1.5708	0	0	0.413917	0.0919858	0.362425	0.449178	1.5708	0	0
10.02	-2.05513	1.40376	0.561912	0.805966	0.794784	0.924334	0.369333	0.0229763	-0.208458	0.724459	-0.221588	0	0	-0.148302	-0.179709	0.0188925	0.207848	-0.170472	0	0	-0.488217	0.358167	0.478757	-0.553158	-0.138879	-0.752856	1.69109	1.5708	0	0	0.41299	0.0969998	0.360742	0.448339	1.5708	0	0
10.03	-2.06944	1.39907	0.571615	0.805397	0.793201	0.924364	0.381644	0.0264983	-0.207504	0.712224	-0.221616	0	0	-0.146056	-0.181826	0.0184932	0.208443	-0.170831	0	0	-0.486916	0.362604	0.467433	-0.544459	-0.143703	-0.738793	1.69166	1.5708	0	0	0.399218	0.0837685	0.353391	0.46387	1.5708	0	0
10.04	-2.05713	1.39685	0.555819	0.80496	0.791845	0.924605	0.38853	0.029503	-0.208329	0.701055	-0.220414	0	0	-0.148707	-0.184301	0.0180456	0.209683	-0.171197	0	0	-0.489873	0.363994	0.471529	-0.546302	-0.142976	-0.73786	1.69156	1.5708	0	0	0.397165	0.0827065	0.355824	0.462267	1.5708	0	0
10.05	-2.03351	1.39508	0.528874	0.804518	0.790566	0.924844	0.392838	0.0334775	-0.20878	0.689177	-0.220494	0	0	-0.152818	-0.187676	0.0158619	0.212479	-0.170574	0	0	-0.494625	0.363722	0.486145	-0.555444	-0.138447	-0.745261	1.69109	1.5708	0	0	0.400137	0.0892269	0.359433	0.453525	1.5708	0	0
10.06	-2.02245	1.3929	0.514172	0.803947	0.789166	0.925057	0.399065	0.0370969	-0.208749	0.677429	-0.221543	0	0	-0.154882	-0.190177	0.0143546	0.214989	-0.170082	0	0	-0.497971	0.365017	0.492829	-0.558988	-0.135355	-0.747126	1.69174	1.5708	0	0	0.39902	0.0899242	0.361047	0.449254	1.5708	0	0
10.07	-2.04245	1.38781	0.529984	0.803254	0.78747	0.925048	0.410247	0.0416124	-0.205619	0.660904	-0.237762	0	0	-0.150002	-0.192671	0.0132434	0.218592	-0.169712	0	0	-0.497318	0.369805	0.477961	-0.548705	-0.140976	-0.730194	1.69311	1.5708	0	0	0.379179	0.0744755	0.342436	0.473838	1.5708	0	0
10.08	-2.02462	1.38584	0.50921	0.80279	0.786172	0.925287	0.414017	0.0454999	-0.206018	0.646499	-0.251912	0	0	-0.153091	-0.195974	0.0121568	0.221865	-0.16943	0	0	-0.50162	0.370267	0.48952	-0.556267	-0.137374	-0.735358	1.69277	1.5708	0	0	0.378728	0.0780444	0.342476	0.47162	1.5708	0	0
10.09	-2.03498	1.38227	0.515754	0.802053	0.784533	0.925412	0.42274	0.0490391	-0.204757	0.631413	-0.266766	0	0	-0.151193	-0.197985	0.0122864	0.223827	-0.170086	0	0	-0.501507	0.373931	0.47901	-0.54847	-0.141127	-0.722295	1.69318	1.5708	0	0	0.365466	0.0662966	0.334035	0.485991	1.5708	0	0
10.1	-2.02782	1.37982	0.505046	0.801413	0.782969	0.925647	0.42734	0.0532504	-0.203912	0.616088	-0.283549	0	0	-0.152722	-0.200795	0.0102941	0.226419	-0.170007	0	0	-0.504244	0.375873	0.484518	-0.55199	-0.13853	-0.722842	1.69456	1.5708	0	0	0.36255	0.0660606	0.332977	0.485879	1.5708	0	0
10.11	-2.0107	1.37808	0.484744	0.800869	0.781427	0.925922	0.429063	0.0578185	-0.202632	0.60066	-0.297135	0	0	-0.15606	-0.204055	0.00688032	0.230178	-0.169629	0	0	-0.508667	0.376143	0.496975	-0.560601	-0.134299	-0.728419	1.69489	1.5708	0	0	0.362247	0.0701655	0.332815	0.483856	1.5708	0	0
10.12	-2.01064	1.37644	0.48169	0.800199	0.779679	0.926062	0.433837	0.0606583	-0.201448	0.587989	-0.301703	0	0	-0.156617	-0.205475	0.00565305	0.233199	-0.169726	0	0	-0.509995	0.377246	0.493198	-0.558141	-0.135633	-0.721043	1.69382	1.5708	0	0	0.353609	0.0639773	0.327198	0.492536	1.5708	0	0
10.13	-2.0191	1.37483	0.487182	0.799383	0.777768	0.926142	0.439181	0.0635211	-0.198385	0.574785	-0.304218	0	0	-0.154893	-0.206234	0.0044932	0.237796	-0.169805	0	0	-0.509119	0.379036	0.479661	-0.548635	-0.140106	-0.70586	1.6913	1.5708	0	0	0.341728	0.0524961	0.320152	0.502769	1.5708	0	0
10.14	-2.00653	1.375	0.472952	0.798779	0.776004	0.926352	0.44015	0.0656828	-0.197373	0.56418	-0.302647	0	0	-0.157575	-0.207373	0.00388032	0.24248	-0.169599	0	0	-0.511834	0.378527	0.482255	-0.55099	-0.138083	-0.704776	1.68922	1.5708	0	0	0.341005	0.0518053	0.322952	0.497725	1.5708	0	0
10.15	-1.9856	1.37525	0.451468	0.798341	0.774183	0.926508	0.438656	0.0679966	-0.197024	0.552788	-0.303732	0	0	-0.161481	-0.209497	0.00284319	0.247915	-0.16887	0	0	-0.515068	0.377446	0.492827	-0.560105	-0.133126	-0.710131	1.68628	1.5708	0	0	0.343894	0.0571508	0.325207	0.487749	1.5708	0	0
10.16	-1.97264	1.37592	0.438156	0.797702	0.772219	0.926635	0.438346	0.0696513	-0.195558	0.543234	-0.304439	0	0	-0.164383	-0.210689	0.00309042	0.252246	-0.168517	0	0	-0.516912	0.377207	0.495344	-0.563934	-0.128797	-0.710165	1.68368	1.5708	0	0	0.343194	0.0570788	0.326308	0.482057	1.5708	0	0
10.17	-1.95843	1.37695	0.424248	0.796946	0.770154	0.926766	0.436299	0.0719743	-0.19012	0.532224	-0.306266	0	0	-0.167136	-0.212046	0.0038523	0.257438	-0.168305	0	0	-0.518285	0.376821	0.496574	-0.56696	-0.124587	-0.709244	1.68036	1.5708	0	0	0.342469	0.0562574	0.327588	0.476995	1.5708	0	0
10.18	-1.94306	1.37828	0.409811	0.796112	0.767948	0.926874	0.432558	0.0739635	-0.185243	0.520338	-0.309927	0	0	-0.169853	-0.213483	0.00505208	0.263172	-0.168249	0	0	-0.519272	0.376451	0.496341	-0.56931	-0.120776	-0.707258	1.67676	1.5708	0	0	0.341406	0.0545602	0.328671	0.473004	1.5708	0	0
10.19	-1.9259	1.37986	0.394852	0.795328	0.765681	0.927074	0.425282	0.0760002	-0.179587	0.501948	-0.333204	0	0	-0.171626	-0.214962	0.00799852	0.271153	-0.168423	0	0	-0.521036	0.377159	0.488888	-0.567545	-0.120353	-0.699288	1.67346	1.5708	0	0	0.334682	0.0493631	0.319176	0.478958	1.5708	0	0
10.2	-1.99074	1.37997	0.453644	0.793602	0.764227	0.925831	0.40944	0.0710912	-0.0171176	0.429423	-0.36169	0	0	-0.156461	-0.20933	0.0131571	0.283139	-0.165984	0	0	-0.510212	0.370343	0.480353	-0.56299	-0.120377	-0.687433	1.6699	1.5708	0	0	0.322202	0.0393927	0.306672	0.494013	1.5708	0	0
10.21	-1.90076	1.38501	0.375252	0.793619	0.761016	0.927293	0.412928	0.0756595	-0.173	0.476946	-0.362372	0	0	-0.17317	-0.214964	0.0178103	0.286975	-0.169902	0	0	-0.525137	0.378393	0.459153	-0.555646	-0.121937	-0.674242	1.66951	1.5708	0	0	0.310994	0.0275837	0.298652	0.508147	1.5708	0	0
10.22	-1.87463	1.38806	0.352801	0.792951	0.758578	0.927199	0.404464	0.0745454	-0.173952	0.469452	-0.375029	0	0	-0.175814	-0.215983	0.0204005	0.296641	-0.169283	0	0	-0.528214	0.376873	0.460047	-0.561771	-0.116372	-0.674894	1.66754	1.5708	0	0	0.308097	0.0260999	0.298656	0.509245	1.5708	0	0
10.23	-1.85501	1.3922	0.337543	0.792171	0.756035	0.927261	0.395682	0.0718452	-0.176324	0.461657	-0.391299	0	0	-0.176358	-0.21557	0.0245839	0.308074	-0.169047	0	0	-0.531391	0.377419	0.437809	-0.55267	-0.118936	-0.657796	1.6656	1.5708	0	0	0.292259	0.0112934	0.287797	0.526772	1.5708	0	0
